<mxfile host="app.diagrams.net" modified="2023-12-09T18:30:52.311Z" agent="Mozilla/5.0 (Windows NT 10.0; Win64; x64) AppleWebKit/537.36 (KHTML, like Gecko) Chrome/120.0.0.0 Safari/537.36" etag="8tUygx6wHBATubWBRvX9" version="22.1.7" type="device">
  <diagram name="Page-1" id="CRDWu2Bbiqsp0V8BV5b5">
    <mxGraphModel dx="1247" dy="1537" grid="1" gridSize="10" guides="1" tooltips="1" connect="1" arrows="1" fold="1" page="1" pageScale="1" pageWidth="1100" pageHeight="850" math="0" shadow="0">
      <root>
        <mxCell id="0" />
        <mxCell id="1" parent="0" />
        <mxCell id="OgzvW55NVbCZr3GMuW5r-1" value="Деканат" style="shape=umlActor;verticalLabelPosition=bottom;verticalAlign=top;html=1;outlineConnect=0;" parent="1" vertex="1">
          <mxGeometry x="560" y="-30" width="30" height="60" as="geometry" />
        </mxCell>
        <mxCell id="OgzvW55NVbCZr3GMuW5r-4" value="створити навчальний план" style="ellipse;whiteSpace=wrap;html=1;" parent="1" vertex="1">
          <mxGeometry x="365.0000000000002" y="-170" width="120" height="80" as="geometry" />
        </mxCell>
        <mxCell id="OgzvW55NVbCZr3GMuW5r-5" value="Викладач&lt;br&gt;" style="shape=umlActor;verticalLabelPosition=bottom;verticalAlign=top;html=1;outlineConnect=0;fillColor=#ffe6cc;strokeColor=#d79b00;" parent="1" vertex="1">
          <mxGeometry x="680" y="230" width="30" height="60" as="geometry" />
        </mxCell>
        <mxCell id="OgzvW55NVbCZr3GMuW5r-15" value="Помічник" style="shape=umlActor;verticalLabelPosition=bottom;verticalAlign=top;html=1;outlineConnect=0;fillColor=#dae8fc;strokeColor=#6c8ebf;" parent="1" vertex="1">
          <mxGeometry x="290" y="230" width="30" height="60" as="geometry" />
        </mxCell>
        <mxCell id="OgzvW55NVbCZr3GMuW5r-32" value="Професор" style="shape=umlActor;verticalLabelPosition=bottom;verticalAlign=top;html=1;outlineConnect=0;fillColor=#e1d5e7;strokeColor=#9673a6;" parent="1" vertex="1">
          <mxGeometry x="480" y="152.5" width="30" height="60" as="geometry" />
        </mxCell>
        <mxCell id="OgzvW55NVbCZr3GMuW5r-33" value="Доцент" style="shape=umlActor;verticalLabelPosition=bottom;verticalAlign=top;html=1;outlineConnect=0;fillColor=#f8cecc;strokeColor=#b85450;" parent="1" vertex="1">
          <mxGeometry x="415" y="152.5" width="30" height="60" as="geometry" />
        </mxCell>
        <mxCell id="OgzvW55NVbCZr3GMuW5r-42" value="" style="endArrow=classic;html=1;rounded=0;" parent="1" source="OgzvW55NVbCZr3GMuW5r-15" target="3EG6JUl7UtJl8wiNHL4V-3" edge="1">
          <mxGeometry width="50" height="50" relative="1" as="geometry">
            <mxPoint x="300" y="330" as="sourcePoint" />
            <mxPoint x="250" y="360" as="targetPoint" />
            <Array as="points" />
          </mxGeometry>
        </mxCell>
        <mxCell id="OgzvW55NVbCZr3GMuW5r-43" value="" style="endArrow=classic;html=1;rounded=0;exitX=0.287;exitY=1.002;exitDx=0;exitDy=0;exitPerimeter=0;" parent="1" source="OgzvW55NVbCZr3GMuW5r-60" target="OgzvW55NVbCZr3GMuW5r-15" edge="1">
          <mxGeometry width="50" height="50" relative="1" as="geometry">
            <mxPoint x="300" y="190" as="sourcePoint" />
            <mxPoint x="350" y="140" as="targetPoint" />
          </mxGeometry>
        </mxCell>
        <mxCell id="nuVwRFREict_H4Qxl7jP-2" value="&amp;lt;&amp;lt;include&amp;gt;&amp;gt;" style="edgeLabel;html=1;align=center;verticalAlign=middle;resizable=0;points=[];" parent="OgzvW55NVbCZr3GMuW5r-43" vertex="1" connectable="0">
          <mxGeometry x="-0.1395" y="-1" relative="1" as="geometry">
            <mxPoint x="1" as="offset" />
          </mxGeometry>
        </mxCell>
        <mxCell id="OgzvW55NVbCZr3GMuW5r-44" value="" style="endArrow=classic;html=1;rounded=0;entryX=0.5;entryY=0;entryDx=0;entryDy=0;entryPerimeter=0;" parent="1" source="OgzvW55NVbCZr3GMuW5r-60" target="OgzvW55NVbCZr3GMuW5r-33" edge="1">
          <mxGeometry width="50" height="50" relative="1" as="geometry">
            <mxPoint x="490" y="150" as="sourcePoint" />
            <mxPoint x="455.2272727272725" y="230" as="targetPoint" />
            <Array as="points" />
          </mxGeometry>
        </mxCell>
        <mxCell id="nuVwRFREict_H4Qxl7jP-3" value="&amp;lt;&amp;lt;include&amp;gt;&amp;gt;" style="edgeLabel;html=1;align=center;verticalAlign=middle;resizable=0;points=[];" parent="OgzvW55NVbCZr3GMuW5r-44" vertex="1" connectable="0">
          <mxGeometry x="0.003" y="3" relative="1" as="geometry">
            <mxPoint as="offset" />
          </mxGeometry>
        </mxCell>
        <mxCell id="OgzvW55NVbCZr3GMuW5r-45" value="" style="endArrow=classic;html=1;rounded=0;exitX=0.649;exitY=1.028;exitDx=0;exitDy=0;exitPerimeter=0;" parent="1" source="OgzvW55NVbCZr3GMuW5r-60" target="OgzvW55NVbCZr3GMuW5r-5" edge="1">
          <mxGeometry width="50" height="50" relative="1" as="geometry">
            <mxPoint x="484" y="130" as="sourcePoint" />
            <mxPoint x="550" y="200" as="targetPoint" />
            <Array as="points" />
          </mxGeometry>
        </mxCell>
        <mxCell id="nuVwRFREict_H4Qxl7jP-5" value="&amp;lt;&amp;lt;include&amp;gt;&amp;gt;" style="edgeLabel;html=1;align=center;verticalAlign=middle;resizable=0;points=[];" parent="OgzvW55NVbCZr3GMuW5r-45" vertex="1" connectable="0">
          <mxGeometry x="-0.1448" relative="1" as="geometry">
            <mxPoint as="offset" />
          </mxGeometry>
        </mxCell>
        <mxCell id="OgzvW55NVbCZr3GMuW5r-48" value="" style="endArrow=classic;html=1;rounded=0;entryX=1;entryY=0.5;entryDx=0;entryDy=0;" parent="1" source="OgzvW55NVbCZr3GMuW5r-5" target="3EG6JUl7UtJl8wiNHL4V-3" edge="1">
          <mxGeometry width="50" height="50" relative="1" as="geometry">
            <mxPoint x="598" y="295" as="sourcePoint" />
            <mxPoint x="710" y="425" as="targetPoint" />
            <Array as="points" />
          </mxGeometry>
        </mxCell>
        <mxCell id="OgzvW55NVbCZr3GMuW5r-49" value="" style="endArrow=classic;html=1;rounded=0;entryX=0.603;entryY=0.047;entryDx=0;entryDy=0;entryPerimeter=0;" parent="1" source="OgzvW55NVbCZr3GMuW5r-32" target="3EG6JUl7UtJl8wiNHL4V-3" edge="1">
          <mxGeometry width="50" height="50" relative="1" as="geometry">
            <mxPoint x="506" y="312.5" as="sourcePoint" />
            <mxPoint x="516.1599999999999" y="306.96000000000004" as="targetPoint" />
            <Array as="points" />
          </mxGeometry>
        </mxCell>
        <mxCell id="OgzvW55NVbCZr3GMuW5r-51" value="" style="endArrow=classic;html=1;rounded=0;entryX=0.458;entryY=0.015;entryDx=0;entryDy=0;entryPerimeter=0;" parent="1" source="OgzvW55NVbCZr3GMuW5r-33" target="3EG6JUl7UtJl8wiNHL4V-3" edge="1">
          <mxGeometry width="50" height="50" relative="1" as="geometry">
            <mxPoint x="429.5" y="312.5" as="sourcePoint" />
            <mxPoint x="395" y="302.5" as="targetPoint" />
            <Array as="points" />
          </mxGeometry>
        </mxCell>
        <mxCell id="OgzvW55NVbCZr3GMuW5r-60" value="Кафедра" style="ellipse;whiteSpace=wrap;html=1;" parent="1" vertex="1">
          <mxGeometry x="365.0000000000002" width="120" height="80" as="geometry" />
        </mxCell>
        <mxCell id="OgzvW55NVbCZr3GMuW5r-62" style="edgeStyle=orthogonalEdgeStyle;rounded=0;orthogonalLoop=1;jettySize=auto;html=1;entryX=0.498;entryY=-0.05;entryDx=0;entryDy=0;entryPerimeter=0;" parent="1" source="OgzvW55NVbCZr3GMuW5r-4" target="OgzvW55NVbCZr3GMuW5r-60" edge="1">
          <mxGeometry relative="1" as="geometry">
            <Array as="points">
              <mxPoint x="425" y="-20" />
              <mxPoint x="425" y="-20" />
            </Array>
          </mxGeometry>
        </mxCell>
        <mxCell id="nuVwRFREict_H4Qxl7jP-1" value="&amp;lt;&amp;lt;include&amp;gt;&amp;gt;" style="edgeLabel;html=1;align=center;verticalAlign=middle;resizable=0;points=[];" parent="OgzvW55NVbCZr3GMuW5r-62" vertex="1" connectable="0">
          <mxGeometry y="3" relative="1" as="geometry">
            <mxPoint as="offset" />
          </mxGeometry>
        </mxCell>
        <mxCell id="OgzvW55NVbCZr3GMuW5r-64" value="" style="endArrow=classic;html=1;rounded=0;exitX=0.5;exitY=0;exitDx=0;exitDy=0;exitPerimeter=0;entryX=0.942;entryY=0.738;entryDx=0;entryDy=0;entryPerimeter=0;" parent="1" source="OgzvW55NVbCZr3GMuW5r-1" target="OgzvW55NVbCZr3GMuW5r-4" edge="1">
          <mxGeometry width="50" height="50" relative="1" as="geometry">
            <mxPoint x="675" y="-170" as="sourcePoint" />
            <mxPoint x="596" y="-35" as="targetPoint" />
          </mxGeometry>
        </mxCell>
        <mxCell id="nuVwRFREict_H4Qxl7jP-8" value="&amp;lt;&amp;lt;include&amp;gt;&amp;gt;" style="edgeLabel;html=1;align=center;verticalAlign=middle;resizable=0;points=[];" parent="OgzvW55NVbCZr3GMuW5r-64" vertex="1" connectable="0">
          <mxGeometry x="-0.1485" y="1" relative="1" as="geometry">
            <mxPoint as="offset" />
          </mxGeometry>
        </mxCell>
        <mxCell id="fjVaJVmNQyFUtFw9oPyz-7" value="група студентів" style="ellipse;whiteSpace=wrap;html=1;" parent="1" vertex="1">
          <mxGeometry x="370" y="660" width="120" height="80" as="geometry" />
        </mxCell>
        <mxCell id="fjVaJVmNQyFUtFw9oPyz-21" value="відмітити присутніх" style="ellipse;whiteSpace=wrap;html=1;" parent="1" vertex="1">
          <mxGeometry x="50" y="630" width="80" height="60" as="geometry" />
        </mxCell>
        <mxCell id="fjVaJVmNQyFUtFw9oPyz-22" value="виставити оцінки" style="ellipse;whiteSpace=wrap;html=1;" parent="1" vertex="1">
          <mxGeometry x="815" y="640" width="80" height="60" as="geometry" />
        </mxCell>
        <mxCell id="fjVaJVmNQyFUtFw9oPyz-29" value="журнал" style="ellipse;whiteSpace=wrap;html=1;" parent="1" vertex="1">
          <mxGeometry x="370" y="820" width="120" height="80" as="geometry" />
        </mxCell>
        <mxCell id="fjVaJVmNQyFUtFw9oPyz-31" value="" style="endArrow=classic;html=1;rounded=0;exitX=0.5;exitY=1;exitDx=0;exitDy=0;entryX=1;entryY=0.5;entryDx=0;entryDy=0;" parent="1" source="fjVaJVmNQyFUtFw9oPyz-22" target="fjVaJVmNQyFUtFw9oPyz-29" edge="1">
          <mxGeometry width="50" height="50" relative="1" as="geometry">
            <mxPoint x="405" y="600" as="sourcePoint" />
            <mxPoint x="455" y="550" as="targetPoint" />
            <Array as="points" />
          </mxGeometry>
        </mxCell>
        <mxCell id="fjVaJVmNQyFUtFw9oPyz-32" value="" style="endArrow=classic;html=1;rounded=0;exitX=0.5;exitY=1;exitDx=0;exitDy=0;entryX=0.008;entryY=0.4;entryDx=0;entryDy=0;entryPerimeter=0;" parent="1" source="fjVaJVmNQyFUtFw9oPyz-21" target="fjVaJVmNQyFUtFw9oPyz-29" edge="1">
          <mxGeometry width="50" height="50" relative="1" as="geometry">
            <mxPoint x="110" y="610" as="sourcePoint" />
            <mxPoint x="-115" y="850" as="targetPoint" />
            <Array as="points" />
          </mxGeometry>
        </mxCell>
        <mxCell id="nuVwRFREict_H4Qxl7jP-10" value="&amp;lt;&amp;lt;include&amp;gt;&amp;gt;" style="edgeLabel;html=1;align=center;verticalAlign=middle;resizable=0;points=[];" parent="fjVaJVmNQyFUtFw9oPyz-32" vertex="1" connectable="0">
          <mxGeometry x="0.1128" y="-3" relative="1" as="geometry">
            <mxPoint as="offset" />
          </mxGeometry>
        </mxCell>
        <mxCell id="fjVaJVmNQyFUtFw9oPyz-33" value="" style="endArrow=classic;html=1;rounded=0;exitX=0.923;exitY=0.764;exitDx=0;exitDy=0;entryX=1;entryY=0.5;entryDx=0;entryDy=0;exitPerimeter=0;" parent="1" source="fjVaJVmNQyFUtFw9oPyz-29" target="fjVaJVmNQyFUtFw9oPyz-34" edge="1">
          <mxGeometry width="50" height="50" relative="1" as="geometry">
            <mxPoint x="729.9999999999995" y="1100" as="sourcePoint" />
            <mxPoint x="964.9999999999827" y="-130" as="targetPoint" />
            <Array as="points">
              <mxPoint x="890" y="820" />
              <mxPoint x="1050" y="630" />
              <mxPoint x="1110" y="530" />
              <mxPoint x="1040" y="280" />
            </Array>
          </mxGeometry>
        </mxCell>
        <mxCell id="nuVwRFREict_H4Qxl7jP-9" value="&amp;lt;&amp;lt;include&amp;gt;&amp;gt;" style="edgeLabel;html=1;align=center;verticalAlign=middle;resizable=0;points=[];" parent="fjVaJVmNQyFUtFw9oPyz-33" vertex="1" connectable="0">
          <mxGeometry x="-0.7261" y="1" relative="1" as="geometry">
            <mxPoint as="offset" />
          </mxGeometry>
        </mxCell>
        <mxCell id="fjVaJVmNQyFUtFw9oPyz-34" value="Контроль якості освіти" style="ellipse;whiteSpace=wrap;html=1;" parent="1" vertex="1">
          <mxGeometry x="830" y="190" width="120" height="80" as="geometry" />
        </mxCell>
        <mxCell id="fjVaJVmNQyFUtFw9oPyz-35" value="" style="endArrow=classic;html=1;rounded=0;entryX=0.5;entryY=0.5;entryDx=0;entryDy=0;entryPerimeter=0;" parent="1" source="fjVaJVmNQyFUtFw9oPyz-34" target="OgzvW55NVbCZr3GMuW5r-1" edge="1">
          <mxGeometry width="50" height="50" relative="1" as="geometry">
            <mxPoint x="480" y="-30" as="sourcePoint" />
            <mxPoint x="530" y="-80" as="targetPoint" />
          </mxGeometry>
        </mxCell>
        <mxCell id="nuVwRFREict_H4Qxl7jP-6" value="&amp;lt;&amp;lt;include&amp;gt;&amp;gt;" style="edgeLabel;html=1;align=center;verticalAlign=middle;resizable=0;points=[];" parent="fjVaJVmNQyFUtFw9oPyz-35" vertex="1" connectable="0">
          <mxGeometry x="-0.077" y="-1" relative="1" as="geometry">
            <mxPoint as="offset" />
          </mxGeometry>
        </mxCell>
        <mxCell id="fjVaJVmNQyFUtFw9oPyz-46" value="Провести лекції" style="ellipse;whiteSpace=wrap;html=1;" parent="1" vertex="1">
          <mxGeometry x="105" y="450" width="120" height="80" as="geometry" />
        </mxCell>
        <mxCell id="fjVaJVmNQyFUtFw9oPyz-47" value="Провети лабораторну" style="ellipse;whiteSpace=wrap;html=1;" parent="1" vertex="1">
          <mxGeometry x="295" y="440" width="120" height="80" as="geometry" />
        </mxCell>
        <mxCell id="fjVaJVmNQyFUtFw9oPyz-48" value="Провети консультацію" style="ellipse;whiteSpace=wrap;html=1;" parent="1" vertex="1">
          <mxGeometry x="515" y="440" width="120" height="80" as="geometry" />
        </mxCell>
        <mxCell id="fjVaJVmNQyFUtFw9oPyz-49" value="Провести семінари" style="ellipse;whiteSpace=wrap;html=1;" parent="1" vertex="1">
          <mxGeometry x="675" y="450" width="120" height="80" as="geometry" />
        </mxCell>
        <mxCell id="fjVaJVmNQyFUtFw9oPyz-55" value="" style="endArrow=classic;html=1;rounded=0;exitX=-0.015;exitY=0.44;exitDx=0;exitDy=0;exitPerimeter=0;entryX=0.634;entryY=1.005;entryDx=0;entryDy=0;entryPerimeter=0;" parent="1" source="fjVaJVmNQyFUtFw9oPyz-7" target="fjVaJVmNQyFUtFw9oPyz-46" edge="1">
          <mxGeometry width="50" height="50" relative="1" as="geometry">
            <mxPoint x="435" y="560" as="sourcePoint" />
            <mxPoint x="485" y="510" as="targetPoint" />
            <Array as="points">
              <mxPoint x="225" y="580" />
            </Array>
          </mxGeometry>
        </mxCell>
        <mxCell id="nuVwRFREict_H4Qxl7jP-12" value="&amp;lt;&amp;lt;include&amp;gt;&amp;gt;" style="edgeLabel;html=1;align=center;verticalAlign=middle;resizable=0;points=[];" parent="fjVaJVmNQyFUtFw9oPyz-55" vertex="1" connectable="0">
          <mxGeometry x="-0.4237" y="-1" relative="1" as="geometry">
            <mxPoint as="offset" />
          </mxGeometry>
        </mxCell>
        <mxCell id="fjVaJVmNQyFUtFw9oPyz-56" value="" style="endArrow=classic;html=1;rounded=0;" parent="1" source="fjVaJVmNQyFUtFw9oPyz-7" target="fjVaJVmNQyFUtFw9oPyz-47" edge="1">
          <mxGeometry width="50" height="50" relative="1" as="geometry">
            <mxPoint x="383" y="675" as="sourcePoint" />
            <mxPoint x="191" y="540" as="targetPoint" />
          </mxGeometry>
        </mxCell>
        <mxCell id="nuVwRFREict_H4Qxl7jP-13" value="&amp;lt;&amp;lt;include&amp;gt;&amp;gt;" style="edgeLabel;html=1;align=center;verticalAlign=middle;resizable=0;points=[];" parent="fjVaJVmNQyFUtFw9oPyz-56" vertex="1" connectable="0">
          <mxGeometry x="-0.4927" y="-1" relative="1" as="geometry">
            <mxPoint x="1" as="offset" />
          </mxGeometry>
        </mxCell>
        <mxCell id="fjVaJVmNQyFUtFw9oPyz-57" value="" style="endArrow=classic;html=1;rounded=0;exitX=0.703;exitY=0.048;exitDx=0;exitDy=0;exitPerimeter=0;entryX=0;entryY=1;entryDx=0;entryDy=0;" parent="1" source="fjVaJVmNQyFUtFw9oPyz-7" target="fjVaJVmNQyFUtFw9oPyz-48" edge="1">
          <mxGeometry width="50" height="50" relative="1" as="geometry">
            <mxPoint x="393" y="685" as="sourcePoint" />
            <mxPoint x="201" y="550" as="targetPoint" />
          </mxGeometry>
        </mxCell>
        <mxCell id="nuVwRFREict_H4Qxl7jP-14" value="&amp;lt;&amp;lt;include&amp;gt;&amp;gt;" style="edgeLabel;html=1;align=center;verticalAlign=middle;resizable=0;points=[];" parent="fjVaJVmNQyFUtFw9oPyz-57" vertex="1" connectable="0">
          <mxGeometry x="-0.3613" y="-1" relative="1" as="geometry">
            <mxPoint as="offset" />
          </mxGeometry>
        </mxCell>
        <mxCell id="fjVaJVmNQyFUtFw9oPyz-58" value="" style="endArrow=classic;html=1;rounded=0;exitX=1.007;exitY=0.364;exitDx=0;exitDy=0;exitPerimeter=0;entryX=0.282;entryY=0.94;entryDx=0;entryDy=0;entryPerimeter=0;" parent="1" source="fjVaJVmNQyFUtFw9oPyz-7" target="fjVaJVmNQyFUtFw9oPyz-49" edge="1">
          <mxGeometry width="50" height="50" relative="1" as="geometry">
            <mxPoint x="403" y="695" as="sourcePoint" />
            <mxPoint x="211" y="560" as="targetPoint" />
          </mxGeometry>
        </mxCell>
        <mxCell id="nuVwRFREict_H4Qxl7jP-15" value="&amp;lt;&amp;lt;include&amp;gt;&amp;gt;" style="edgeLabel;html=1;align=center;verticalAlign=middle;resizable=0;points=[];" parent="fjVaJVmNQyFUtFw9oPyz-58" vertex="1" connectable="0">
          <mxGeometry x="-0.5361" y="1" relative="1" as="geometry">
            <mxPoint as="offset" />
          </mxGeometry>
        </mxCell>
        <mxCell id="fjVaJVmNQyFUtFw9oPyz-59" value="" style="endArrow=classic;html=1;rounded=0;exitX=0;exitY=1;exitDx=0;exitDy=0;entryX=0.776;entryY=0.028;entryDx=0;entryDy=0;entryPerimeter=0;" parent="1" source="fjVaJVmNQyFUtFw9oPyz-46" target="fjVaJVmNQyFUtFw9oPyz-21" edge="1">
          <mxGeometry width="50" height="50" relative="1" as="geometry">
            <mxPoint x="435" y="560" as="sourcePoint" />
            <mxPoint x="485" y="510" as="targetPoint" />
          </mxGeometry>
        </mxCell>
        <mxCell id="nuVwRFREict_H4Qxl7jP-18" value="&amp;lt;&amp;lt;include&amp;gt;&amp;gt;" style="edgeLabel;html=1;align=center;verticalAlign=middle;resizable=0;points=[];" parent="fjVaJVmNQyFUtFw9oPyz-59" vertex="1" connectable="0">
          <mxGeometry x="-0.1855" y="-2" relative="1" as="geometry">
            <mxPoint as="offset" />
          </mxGeometry>
        </mxCell>
        <mxCell id="fjVaJVmNQyFUtFw9oPyz-60" value="" style="endArrow=classic;html=1;rounded=0;exitX=0;exitY=1;exitDx=0;exitDy=0;" parent="1" source="fjVaJVmNQyFUtFw9oPyz-47" target="fjVaJVmNQyFUtFw9oPyz-21" edge="1">
          <mxGeometry width="50" height="50" relative="1" as="geometry">
            <mxPoint x="133" y="528" as="sourcePoint" />
            <mxPoint x="-5" y="610" as="targetPoint" />
          </mxGeometry>
        </mxCell>
        <mxCell id="fjVaJVmNQyFUtFw9oPyz-61" value="" style="endArrow=classic;html=1;rounded=0;exitX=0.023;exitY=0.635;exitDx=0;exitDy=0;exitPerimeter=0;entryX=1;entryY=0;entryDx=0;entryDy=0;" parent="1" source="fjVaJVmNQyFUtFw9oPyz-48" target="fjVaJVmNQyFUtFw9oPyz-21" edge="1">
          <mxGeometry width="50" height="50" relative="1" as="geometry">
            <mxPoint x="143" y="538" as="sourcePoint" />
            <mxPoint x="-5" y="610" as="targetPoint" />
          </mxGeometry>
        </mxCell>
        <mxCell id="fjVaJVmNQyFUtFw9oPyz-62" value="" style="endArrow=classic;html=1;rounded=0;" parent="1" source="fjVaJVmNQyFUtFw9oPyz-49" target="fjVaJVmNQyFUtFw9oPyz-21" edge="1">
          <mxGeometry width="50" height="50" relative="1" as="geometry">
            <mxPoint x="153" y="548" as="sourcePoint" />
            <mxPoint x="15" y="630" as="targetPoint" />
            <Array as="points" />
          </mxGeometry>
        </mxCell>
        <mxCell id="fjVaJVmNQyFUtFw9oPyz-64" value="" style="endArrow=classic;html=1;rounded=0;" parent="1" source="fjVaJVmNQyFUtFw9oPyz-47" edge="1">
          <mxGeometry width="50" height="50" relative="1" as="geometry">
            <mxPoint x="231" y="515" as="sourcePoint" />
            <mxPoint x="815" y="670" as="targetPoint" />
          </mxGeometry>
        </mxCell>
        <mxCell id="nuVwRFREict_H4Qxl7jP-16" value="&amp;lt;&amp;lt;include&amp;gt;&amp;gt;" style="edgeLabel;html=1;align=center;verticalAlign=middle;resizable=0;points=[];" parent="fjVaJVmNQyFUtFw9oPyz-64" vertex="1" connectable="0">
          <mxGeometry x="-0.28" y="-2" relative="1" as="geometry">
            <mxPoint as="offset" />
          </mxGeometry>
        </mxCell>
        <mxCell id="fjVaJVmNQyFUtFw9oPyz-66" value="" style="endArrow=classic;html=1;rounded=0;entryX=0.076;entryY=0.173;entryDx=0;entryDy=0;entryPerimeter=0;" parent="1" source="fjVaJVmNQyFUtFw9oPyz-49" target="fjVaJVmNQyFUtFw9oPyz-22" edge="1">
          <mxGeometry width="50" height="50" relative="1" as="geometry">
            <mxPoint x="251" y="535" as="sourcePoint" />
            <mxPoint x="825" y="660" as="targetPoint" />
          </mxGeometry>
        </mxCell>
        <mxCell id="nuVwRFREict_H4Qxl7jP-17" value="&amp;lt;&amp;lt;include&amp;gt;&amp;gt;" style="edgeLabel;html=1;align=center;verticalAlign=middle;resizable=0;points=[];" parent="fjVaJVmNQyFUtFw9oPyz-66" vertex="1" connectable="0">
          <mxGeometry x="-0.6289" y="2" relative="1" as="geometry">
            <mxPoint as="offset" />
          </mxGeometry>
        </mxCell>
        <mxCell id="fjVaJVmNQyFUtFw9oPyz-67" value="Студент" style="shape=umlActor;verticalLabelPosition=bottom;verticalAlign=top;html=1;outlineConnect=0;" parent="1" vertex="1">
          <mxGeometry x="545" y="720" width="30" height="60" as="geometry" />
        </mxCell>
        <mxCell id="fjVaJVmNQyFUtFw9oPyz-68" value="" style="endArrow=classic;html=1;rounded=0;exitX=0.5;exitY=0.5;exitDx=0;exitDy=0;exitPerimeter=0;" parent="1" source="fjVaJVmNQyFUtFw9oPyz-67" target="fjVaJVmNQyFUtFw9oPyz-7" edge="1">
          <mxGeometry width="50" height="50" relative="1" as="geometry">
            <mxPoint x="575" y="800" as="sourcePoint" />
            <mxPoint x="625" y="750" as="targetPoint" />
          </mxGeometry>
        </mxCell>
        <mxCell id="nuVwRFREict_H4Qxl7jP-11" value="&amp;lt;&amp;lt;include&amp;gt;&amp;gt;" style="edgeLabel;html=1;align=center;verticalAlign=middle;resizable=0;points=[];" parent="fjVaJVmNQyFUtFw9oPyz-68" vertex="1" connectable="0">
          <mxGeometry x="-0.0997" relative="1" as="geometry">
            <mxPoint as="offset" />
          </mxGeometry>
        </mxCell>
        <mxCell id="fjVaJVmNQyFUtFw9oPyz-69" value="курсова робота" style="ellipse;whiteSpace=wrap;html=1;" parent="1" vertex="1">
          <mxGeometry x="805" y="440" width="120" height="80" as="geometry" />
        </mxCell>
        <mxCell id="fjVaJVmNQyFUtFw9oPyz-70" value="" style="endArrow=classic;html=1;rounded=0;entryX=0.368;entryY=0.995;entryDx=0;entryDy=0;entryPerimeter=0;" parent="1" source="fjVaJVmNQyFUtFw9oPyz-67" target="fjVaJVmNQyFUtFw9oPyz-69" edge="1">
          <mxGeometry width="50" height="50" relative="1" as="geometry">
            <mxPoint x="515" y="560" as="sourcePoint" />
            <mxPoint x="565" y="510" as="targetPoint" />
          </mxGeometry>
        </mxCell>
        <mxCell id="fjVaJVmNQyFUtFw9oPyz-71" value="" style="endArrow=classic;html=1;rounded=0;exitX=0.377;exitY=-0.005;exitDx=0;exitDy=0;exitPerimeter=0;" parent="1" source="fjVaJVmNQyFUtFw9oPyz-69" target="OgzvW55NVbCZr3GMuW5r-5" edge="1">
          <mxGeometry width="50" height="50" relative="1" as="geometry">
            <mxPoint x="520" y="490" as="sourcePoint" />
            <mxPoint x="760" y="290" as="targetPoint" />
            <Array as="points">
              <mxPoint x="850" y="430" />
            </Array>
          </mxGeometry>
        </mxCell>
        <mxCell id="nuVwRFREict_H4Qxl7jP-21" value="&amp;lt;&amp;lt;include&amp;gt;&amp;gt;" style="edgeLabel;html=1;align=center;verticalAlign=middle;resizable=0;points=[];" parent="fjVaJVmNQyFUtFw9oPyz-71" vertex="1" connectable="0">
          <mxGeometry x="0.2612" relative="1" as="geometry">
            <mxPoint as="offset" />
          </mxGeometry>
        </mxCell>
        <mxCell id="fjVaJVmNQyFUtFw9oPyz-72" value="перевірити курсову" style="ellipse;whiteSpace=wrap;html=1;" parent="1" vertex="1">
          <mxGeometry x="965" y="440" width="120" height="80" as="geometry" />
        </mxCell>
        <mxCell id="fjVaJVmNQyFUtFw9oPyz-73" value="" style="endArrow=classic;html=1;rounded=0;exitX=0.5;exitY=1;exitDx=0;exitDy=0;entryX=1;entryY=0.5;entryDx=0;entryDy=0;" parent="1" source="fjVaJVmNQyFUtFw9oPyz-72" target="fjVaJVmNQyFUtFw9oPyz-29" edge="1">
          <mxGeometry width="50" height="50" relative="1" as="geometry">
            <mxPoint x="515" y="560" as="sourcePoint" />
            <mxPoint x="965" y="740" as="targetPoint" />
            <Array as="points">
              <mxPoint x="915" y="740" />
            </Array>
          </mxGeometry>
        </mxCell>
        <mxCell id="nuVwRFREict_H4Qxl7jP-20" value="&amp;lt;&amp;lt;include&amp;gt;&amp;gt;" style="edgeLabel;html=1;align=center;verticalAlign=middle;resizable=0;points=[];" parent="fjVaJVmNQyFUtFw9oPyz-73" vertex="1" connectable="0">
          <mxGeometry x="-0.0986" y="1" relative="1" as="geometry">
            <mxPoint as="offset" />
          </mxGeometry>
        </mxCell>
        <mxCell id="fjVaJVmNQyFUtFw9oPyz-74" value="" style="endArrow=classic;html=1;rounded=0;exitX=0.5;exitY=0.5;exitDx=0;exitDy=0;exitPerimeter=0;entryX=0.429;entryY=0.034;entryDx=0;entryDy=0;entryPerimeter=0;" parent="1" source="OgzvW55NVbCZr3GMuW5r-5" target="fjVaJVmNQyFUtFw9oPyz-72" edge="1">
          <mxGeometry width="50" height="50" relative="1" as="geometry">
            <mxPoint x="520" y="490" as="sourcePoint" />
            <mxPoint x="980" y="390" as="targetPoint" />
            <Array as="points">
              <mxPoint x="940" y="370" />
            </Array>
          </mxGeometry>
        </mxCell>
        <mxCell id="fjVaJVmNQyFUtFw9oPyz-75" value="" style="endArrow=classic;html=1;rounded=0;exitX=1;exitY=0.5;exitDx=0;exitDy=0;" parent="1" source="fjVaJVmNQyFUtFw9oPyz-69" target="fjVaJVmNQyFUtFw9oPyz-72" edge="1">
          <mxGeometry width="50" height="50" relative="1" as="geometry">
            <mxPoint x="515" y="560" as="sourcePoint" />
            <mxPoint x="565" y="510" as="targetPoint" />
          </mxGeometry>
        </mxCell>
        <mxCell id="3EG6JUl7UtJl8wiNHL4V-1" value="" style="endArrow=classic;html=1;rounded=0;exitX=0.584;exitY=1.002;exitDx=0;exitDy=0;exitPerimeter=0;entryX=0.5;entryY=0;entryDx=0;entryDy=0;entryPerimeter=0;" edge="1" parent="1" source="OgzvW55NVbCZr3GMuW5r-60" target="OgzvW55NVbCZr3GMuW5r-32">
          <mxGeometry width="50" height="50" relative="1" as="geometry">
            <mxPoint x="480" y="220" as="sourcePoint" />
            <mxPoint x="530" y="170" as="targetPoint" />
          </mxGeometry>
        </mxCell>
        <mxCell id="3EG6JUl7UtJl8wiNHL4V-2" value="&amp;lt;&amp;lt;include&amp;gt;&amp;gt;" style="edgeLabel;html=1;align=center;verticalAlign=middle;resizable=0;points=[];" vertex="1" connectable="0" parent="3EG6JUl7UtJl8wiNHL4V-1">
          <mxGeometry x="-0.3628" y="1" relative="1" as="geometry">
            <mxPoint as="offset" />
          </mxGeometry>
        </mxCell>
        <mxCell id="3EG6JUl7UtJl8wiNHL4V-3" value="Предмети які веде викладач" style="ellipse;whiteSpace=wrap;html=1;" vertex="1" parent="1">
          <mxGeometry x="410" y="290" width="100" height="65" as="geometry" />
        </mxCell>
        <mxCell id="3EG6JUl7UtJl8wiNHL4V-4" value="" style="endArrow=classic;html=1;rounded=0;exitX=0;exitY=1;exitDx=0;exitDy=0;entryX=0.675;entryY=0.021;entryDx=0;entryDy=0;entryPerimeter=0;" edge="1" parent="1" source="3EG6JUl7UtJl8wiNHL4V-3" target="fjVaJVmNQyFUtFw9oPyz-46">
          <mxGeometry width="50" height="50" relative="1" as="geometry">
            <mxPoint x="650" y="430" as="sourcePoint" />
            <mxPoint x="700" y="380" as="targetPoint" />
          </mxGeometry>
        </mxCell>
        <mxCell id="3EG6JUl7UtJl8wiNHL4V-5" value="" style="endArrow=classic;html=1;rounded=0;exitX=0.43;exitY=0.976;exitDx=0;exitDy=0;exitPerimeter=0;entryX=1;entryY=0;entryDx=0;entryDy=0;" edge="1" parent="1" source="3EG6JUl7UtJl8wiNHL4V-3" target="fjVaJVmNQyFUtFw9oPyz-47">
          <mxGeometry width="50" height="50" relative="1" as="geometry">
            <mxPoint x="650" y="430" as="sourcePoint" />
            <mxPoint x="700" y="380" as="targetPoint" />
          </mxGeometry>
        </mxCell>
        <mxCell id="3EG6JUl7UtJl8wiNHL4V-6" value="" style="endArrow=classic;html=1;rounded=0;exitX=0.673;exitY=1.003;exitDx=0;exitDy=0;exitPerimeter=0;entryX=0.389;entryY=0.048;entryDx=0;entryDy=0;entryPerimeter=0;" edge="1" parent="1" source="3EG6JUl7UtJl8wiNHL4V-3" target="fjVaJVmNQyFUtFw9oPyz-48">
          <mxGeometry width="50" height="50" relative="1" as="geometry">
            <mxPoint x="650" y="430" as="sourcePoint" />
            <mxPoint x="700" y="380" as="targetPoint" />
          </mxGeometry>
        </mxCell>
        <mxCell id="3EG6JUl7UtJl8wiNHL4V-7" value="" style="endArrow=classic;html=1;rounded=0;exitX=1;exitY=1;exitDx=0;exitDy=0;" edge="1" parent="1" source="3EG6JUl7UtJl8wiNHL4V-3" target="fjVaJVmNQyFUtFw9oPyz-49">
          <mxGeometry width="50" height="50" relative="1" as="geometry">
            <mxPoint x="650" y="430" as="sourcePoint" />
            <mxPoint x="700" y="380" as="targetPoint" />
          </mxGeometry>
        </mxCell>
        <mxCell id="3EG6JUl7UtJl8wiNHL4V-8" value="Розписати деканат як&amp;nbsp; сутність&lt;br&gt;" style="text;html=1;align=center;verticalAlign=middle;resizable=0;points=[];autosize=1;strokeColor=none;fillColor=none;" vertex="1" parent="1">
          <mxGeometry x="535" y="-112" width="190" height="30" as="geometry" />
        </mxCell>
      </root>
    </mxGraphModel>
  </diagram>
</mxfile>
